<svg version="1.1" id="Layer_1" xmlns="http://www.w3.org/2000/svg" xmlns:xlink="http://www.w3.org/1999/xlink" x="0px" y="0px"
	 width="100%" viewBox="0 0 512 512" enable-background="new 0 0 512 512" xml:space="preserve">
<path fill="#002E59" opacity="1.000000" stroke="none" 
	d="
M277.000000,0.999998 
	C355.632141,1.000000 434.264282,1.000000 512.948242,1.000000 
	C512.948242,171.557190 512.948242,342.114410 512.948242,513.000000 
	C432.978271,513.000000 352.956116,513.000000 272.442047,512.587646 
	C274.413544,505.745056 273.695770,504.252014 267.353851,502.319824 
	C262.861359,500.951111 258.483124,498.891693 253.895889,498.220551 
	C246.279465,497.106293 241.930817,492.455627 237.988602,486.487488 
	C235.502869,482.724365 235.787643,480.446930 238.994476,477.263336 
	C243.398224,472.891479 248.423737,468.363373 250.808273,462.871277 
	C263.229828,434.261566 274.736816,405.256439 286.906525,376.534912 
	C291.953674,364.623230 294.609131,352.742065 288.254913,340.768799 
	C274.705048,315.236664 260.808014,289.888031 246.928055,264.532684 
	C244.994308,261.000244 240.901810,258.085327 240.331223,254.484802 
	C239.024384,246.238205 239.277176,237.744446 238.864151,228.633530 
	C246.313873,230.846924 248.957779,226.650696 251.508820,221.314026 
	C256.781982,210.282730 262.234192,199.302917 268.317108,188.706268 
	C271.674133,182.858261 274.313293,177.869476 267.956421,172.599289 
	C267.487701,172.210693 267.229340,171.568344 266.843445,171.000153 
	C269.910004,167.520309 272.833832,164.202438 275.919952,160.700409 
	C281.869629,164.152252 287.812012,167.244476 293.358704,170.931946 
	C297.686890,173.809311 301.950073,174.481842 306.812866,172.995560 
	C315.400421,170.370834 323.278564,167.361374 325.690186,157.026443 
	C326.914276,151.780563 329.856201,146.935516 332.021545,141.909271 
	C332.434692,141.939713 332.847809,141.970154 333.260925,142.000580 
	C334.363403,146.307175 335.465881,150.613754 336.604584,155.061829 
	C346.064667,152.999710 355.443359,151.041122 364.749207,148.782303 
	C365.597290,148.576431 366.686554,146.295517 366.462433,145.231186 
	C364.823547,137.448837 362.841675,129.739426 361.054688,121.987015 
	C360.627533,120.133934 359.905426,118.027435 360.387756,116.343651 
	C362.158264,110.162964 364.773438,104.207077 366.287506,97.976280 
	C367.253784,93.999939 368.761536,92.847298 372.866211,92.887451 
	C396.521057,93.118858 420.179321,93.000259 443.836426,93.000259 
	C445.447784,93.000259 447.059143,93.000252 449.223999,93.000252 
	C449.223999,87.460037 449.223999,82.398293 449.223999,76.811729 
	C460.162903,76.811729 470.551941,76.811729 480.812561,76.811729 
	C480.812561,73.975800 480.812561,71.692566 480.812561,68.871826 
	C470.219635,68.871826 459.823639,68.871826 448.776672,68.871826 
	C448.776672,64.491493 448.776672,60.650040 448.776672,56.808582 
	C448.348145,56.615036 447.919617,56.421490 447.491089,56.227940 
	C446.228149,57.503181 444.555908,58.570816 443.782990,60.094612 
	C441.861420,63.882969 439.301117,65.161606 434.869080,65.131882 
	C399.551605,64.894974 364.231873,64.999741 328.912811,64.999741 
	C319.429962,64.999741 309.947083,64.999748 300.222107,64.999748 
	C299.743774,63.020859 299.311279,61.231552 298.789062,59.070999 
	C302.397675,59.070999 305.361938,59.070999 308.646790,59.070999 
	C310.405365,52.225597 312.229431,45.547619 313.738525,38.799221 
	C313.967133,37.776875 312.884155,35.506947 312.146790,35.384350 
	C308.523346,34.781902 307.961487,32.115417 306.892670,29.341074 
	C304.142487,22.202272 300.140778,15.719508 293.819519,11.253340 
	C288.469086,7.473116 282.625397,4.391036 277.000000,0.999998 
z"/>
<path fill="#FFFFFF" opacity="1.000000" stroke="none" 
	d="
M276.531342,0.999998 
	C282.625397,4.391036 288.469086,7.473116 293.819519,11.253340 
	C300.140778,15.719508 304.142487,22.202272 306.892670,29.341074 
	C307.961487,32.115417 308.523346,34.781902 312.146790,35.384350 
	C312.884155,35.506947 313.967133,37.776875 313.738525,38.799221 
	C312.229431,45.547619 310.405365,52.225597 308.646790,59.070999 
	C305.361938,59.070999 302.397675,59.070999 298.789062,59.070999 
	C299.311279,61.231552 299.743774,63.020859 300.222107,64.999748 
	C309.947083,64.999748 319.429962,64.999741 328.912811,64.999741 
	C364.231873,64.999741 399.551605,64.894974 434.869080,65.131882 
	C439.301117,65.161606 441.861420,63.882969 443.782990,60.094612 
	C444.555908,58.570816 446.228149,57.503181 447.491089,56.227940 
	C447.919617,56.421490 448.348145,56.615036 448.776672,56.808582 
	C448.776672,60.650040 448.776672,64.491493 448.776672,68.871826 
	C459.823639,68.871826 470.219635,68.871826 480.812561,68.871826 
	C480.812561,71.692566 480.812561,73.975800 480.812561,76.811729 
	C470.551941,76.811729 460.162903,76.811729 449.223999,76.811729 
	C449.223999,82.398293 449.223999,87.460037 449.223999,93.000252 
	C447.059143,93.000252 445.447784,93.000259 443.836426,93.000259 
	C420.179321,93.000259 396.521057,93.118858 372.866211,92.887451 
	C368.761536,92.847298 367.253784,93.999939 366.287506,97.976280 
	C364.773438,104.207077 362.158264,110.162964 360.387756,116.343651 
	C359.905426,118.027435 360.627533,120.133934 361.054688,121.987015 
	C362.841675,129.739426 364.823547,137.448837 366.462433,145.231186 
	C366.686554,146.295517 365.597290,148.576431 364.749207,148.782303 
	C355.443359,151.041122 346.064667,152.999710 336.604584,155.061829 
	C335.465881,150.613754 334.363403,146.307175 333.260925,142.000580 
	C332.847809,141.970154 332.434692,141.939713 332.021545,141.909271 
	C329.856201,146.935516 326.914276,151.780563 325.690186,157.026443 
	C323.278564,167.361374 315.400421,170.370834 306.812866,172.995560 
	C301.950073,174.481842 297.686890,173.809311 293.358704,170.931946 
	C287.812012,167.244476 281.869629,164.152252 275.919952,160.700409 
	C272.833832,164.202438 269.910004,167.520309 266.843445,171.000153 
	C267.229340,171.568344 267.487701,172.210693 267.956421,172.599289 
	C274.313293,177.869476 271.674133,182.858261 268.317108,188.706268 
	C262.234192,199.302917 256.781982,210.282730 251.508820,221.314026 
	C248.957779,226.650696 246.313873,230.846924 238.864151,228.633530 
	C239.277176,237.744446 239.024384,246.238205 240.331223,254.484802 
	C240.901810,258.085327 244.994308,261.000244 246.928055,264.532684 
	C260.808014,289.888031 274.705048,315.236664 288.254913,340.768799 
	C294.609131,352.742065 291.953674,364.623230 286.906525,376.534912 
	C274.736816,405.256439 263.229828,434.261566 250.808273,462.871277 
	C248.423737,468.363373 243.398224,472.891479 238.994476,477.263336 
	C235.787643,480.446930 235.502869,482.724365 237.988602,486.487488 
	C241.930817,492.455627 246.279465,497.106293 253.895889,498.220551 
	C258.483124,498.891693 262.861359,500.951111 267.353851,502.319824 
	C273.695770,504.252014 274.413544,505.745056 271.975067,512.587646 
	C243.979111,513.000000 215.958206,513.000000 187.468597,512.563232 
	C188.861176,503.022186 190.193008,493.769897 192.688812,484.843018 
	C198.767410,463.101440 204.689011,441.365631 208.216507,419.008179 
	C209.346924,411.843536 211.260925,404.525360 214.358154,398.010406 
	C219.569901,387.047546 225.987595,376.655670 231.957809,366.057281 
	C233.642395,363.066803 233.617096,360.801666 229.980789,359.448730 
	C224.296890,357.333984 220.460358,353.057159 217.240845,348.177185 
	C206.737213,332.256378 196.350952,316.257935 185.801376,300.367767 
	C181.749664,294.264893 177.230743,294.621643 174.238159,301.304779 
	C167.071198,317.310181 160.346176,333.517914 152.956284,349.417847 
	C145.301559,365.887482 139.879456,383.387848 128.217438,397.990723 
	C108.029289,423.269714 88.499542,449.076202 68.824699,474.761780 
	C65.571800,479.008484 61.581638,483.432892 60.411705,488.363495 
	C58.524136,496.318512 58.697273,504.762543 58.000000,513.000000 
	C41.979103,513.000000 25.958210,513.000000 9.568651,512.660278 
	C12.128133,507.234894 15.247830,502.247375 17.921040,497.031006 
	C19.896416,493.176361 23.001850,488.836456 22.587200,485.042450 
	C21.717628,477.085938 22.643270,469.853546 25.744488,462.638550 
	C35.552250,439.820862 45.625416,417.108063 54.915287,394.080139 
	C60.910858,379.218170 67.813744,365.428162 81.900406,356.475128 
	C84.589104,354.766266 88.034988,352.392426 88.708557,349.715668 
	C90.770935,341.519684 92.079712,333.068329 92.899513,324.640259 
	C94.256050,310.694336 95.005470,296.689240 96.003479,282.708588 
	C96.511703,275.589294 96.923416,274.930023 103.657249,275.096954 
	C107.284241,275.186890 108.744865,273.231934 109.774384,270.490997 
	C111.948853,264.701813 113.750061,258.762390 116.137283,253.066010 
	C118.499222,247.429962 120.170776,240.686020 124.359184,236.837708 
	C129.801285,231.837433 132.629944,226.216003 134.786438,219.644684 
	C139.011292,206.770569 139.198273,206.610764 127.798294,199.497925 
	C124.638901,197.526672 124.465462,195.896545 125.551201,192.796295 
	C130.655182,178.222321 135.502228,163.558624 140.544052,148.962540 
	C145.037399,135.954224 142.148895,138.248810 155.116638,138.119415 
	C157.926331,138.091385 159.172577,137.310654 160.516083,134.503036 
	C168.401871,118.023926 175.899353,101.264595 185.171722,85.571060 
	C193.734253,71.078911 206.115967,61.004192 224.788788,62.864059 
	C226.256104,63.010208 228.253174,61.546593 229.399384,60.282742 
	C230.882675,58.647228 231.757828,56.460186 232.640900,54.946011 
	C229.930664,52.904610 225.679977,51.355469 225.282440,49.120846 
	C223.443298,38.782906 221.980835,28.123455 226.542084,18.065157 
	C230.088425,10.244916 236.683884,5.162038 244.000000,1.000000 
	C254.687561,1.000000 265.375122,1.000000 276.531342,0.999998 
z"/>
<path fill="#FC7C00" opacity="1.000000" stroke="none" 
	d="
M243.531342,1.000000 
	C236.683884,5.162038 230.088425,10.244916 226.542084,18.065157 
	C221.980835,28.123455 223.443298,38.782906 225.282440,49.120846 
	C225.679977,51.355469 229.930664,52.904610 232.640900,54.946011 
	C231.757828,56.460186 230.882675,58.647228 229.399384,60.282742 
	C228.253174,61.546593 226.256104,63.010208 224.788788,62.864059 
	C206.115967,61.004192 193.734253,71.078911 185.171722,85.571060 
	C175.899353,101.264595 168.401871,118.023926 160.516083,134.503036 
	C159.172577,137.310654 157.926331,138.091385 155.116638,138.119415 
	C142.148895,138.248810 145.037399,135.954224 140.544052,148.962540 
	C135.502228,163.558624 130.655182,178.222321 125.551201,192.796295 
	C124.465462,195.896545 124.638901,197.526672 127.798294,199.497925 
	C139.198273,206.610764 139.011292,206.770569 134.786438,219.644684 
	C132.629944,226.216003 129.801285,231.837433 124.359184,236.837708 
	C120.170776,240.686020 118.499222,247.429962 116.137283,253.066010 
	C113.750061,258.762390 111.948853,264.701813 109.774384,270.490997 
	C108.744865,273.231934 107.284241,275.186890 103.657249,275.096954 
	C96.923416,274.930023 96.511703,275.589294 96.003479,282.708588 
	C95.005470,296.689240 94.256050,310.694336 92.899513,324.640259 
	C92.079712,333.068329 90.770935,341.519684 88.708557,349.715668 
	C88.034988,352.392426 84.589104,354.766266 81.900406,356.475128 
	C67.813744,365.428162 60.910858,379.218170 54.915287,394.080139 
	C45.625416,417.108063 35.552250,439.820862 25.744488,462.638550 
	C22.643270,469.853546 21.717628,477.085938 22.587200,485.042450 
	C23.001850,488.836456 19.896416,493.176361 17.921040,497.031006 
	C15.247830,502.247375 12.128133,507.234894 9.099994,512.660278 
	C6.334862,513.000000 3.669724,513.000000 1.003440,513.000000 
	C1.002293,342.432709 1.002293,171.865402 1.002293,1.000000 
	C81.687317,1.000000 162.375000,1.000000 243.531342,1.000000 
z"/>
<path fill="#FC7C00" opacity="1.000000" stroke="none" 
	d="
M58.468658,513.000000 
	C58.697273,504.762543 58.524136,496.318512 60.411705,488.363495 
	C61.581638,483.432892 65.571800,479.008484 68.824699,474.761780 
	C88.499542,449.076202 108.029289,423.269714 128.217438,397.990723 
	C139.879456,383.387848 145.301559,365.887482 152.956284,349.417847 
	C160.346176,333.517914 167.071198,317.310181 174.238159,301.304779 
	C177.230743,294.621643 181.749664,294.264893 185.801376,300.367767 
	C196.350952,316.257935 206.737213,332.256378 217.240845,348.177185 
	C220.460358,353.057159 224.296890,357.333984 229.980789,359.448730 
	C233.617096,360.801666 233.642395,363.066803 231.957809,366.057281 
	C225.987595,376.655670 219.569901,387.047546 214.358154,398.010406 
	C211.260925,404.525360 209.346924,411.843536 208.216507,419.008179 
	C204.689011,441.365631 198.767410,463.101440 192.688812,484.843018 
	C190.193008,493.769897 188.861176,503.022186 186.999939,512.563232 
	C144.312439,513.000000 101.624878,513.000000 58.468658,513.000000 
z"/>
</svg>