<svg version="1.1" id="Layer_1" xmlns="http://www.w3.org/2000/svg" xmlns:xlink="http://www.w3.org/1999/xlink" x="0px" y="0px"
	 width="100%" viewBox="0 0 512 512" enable-background="new 0 0 512 512" xml:space="preserve">
<path fill="#101010" opacity="1.000000" stroke="none" 
	d="
M273.000000,513.000000 
	C182.022079,513.000000 91.544159,513.000000 1.033118,513.000000 
	C1.033118,342.397064 1.033118,171.794098 1.033118,1.095572 
	C171.561279,1.095572 342.122620,1.095572 512.841980,1.095572 
	C512.841980,171.666550 512.841980,342.333252 512.841980,513.000000 
	C433.127411,513.000000 353.313690,513.000000 273.000000,513.000000 
M87.833382,261.638031 
	C84.264343,265.395660 87.982323,266.012939 90.258980,266.940796 
	C185.725662,305.848450 281.207336,344.719238 376.688293,383.591888 
	C383.323486,386.293182 385.000275,385.139801 385.000427,377.886017 
	C385.002167,299.901245 385.001740,221.916443 384.999695,143.931656 
	C384.999664,142.599136 385.178314,141.224152 384.914215,139.943100 
	C384.397125,137.434891 382.902435,137.038498 381.072571,138.760239 
	C380.245575,139.538361 379.712280,140.643967 379.103424,141.636383 
	C355.521515,180.072937 331.892517,218.480865 308.469360,257.013947 
	C306.531189,260.202393 304.556488,261.151917 300.998657,261.146454 
	C233.678619,261.042908 166.358383,261.067505 99.038177,261.077576 
	C95.542702,261.078094 92.047249,261.186371 87.833382,261.638031 
z"/>
<path fill="#FE6E28" opacity="1.000000" stroke="none" 
	d="
M88.192581,261.441254 
	C92.047249,261.186371 95.542702,261.078094 99.038177,261.077576 
	C166.358383,261.067505 233.678619,261.042908 300.998657,261.146454 
	C304.556488,261.151917 306.531189,260.202393 308.469360,257.013947 
	C331.892517,218.480865 355.521515,180.072937 379.103424,141.636383 
	C379.712280,140.643967 380.245575,139.538361 381.072571,138.760239 
	C382.902435,137.038498 384.397125,137.434891 384.914215,139.943100 
	C385.178314,141.224152 384.999664,142.599136 384.999695,143.931656 
	C385.001740,221.916443 385.002167,299.901245 385.000427,377.886017 
	C385.000275,385.139801 383.323486,386.293182 376.688293,383.591888 
	C281.207336,344.719238 185.725662,305.848450 90.258980,266.940796 
	C87.982323,266.012939 84.264343,265.395660 88.192581,261.441254 
z"/>
</svg>